<svg width="67" height="73" viewBox="0 0 67 73" fill="none" xmlns="http://www.w3.org/2000/svg">
<path d="M40 71C53.8072 71 65 60.743 65 48.0908C65 35.6819 56.6667 22.3182 40 8C23.3333 22.3182 15 35.6819 15 48.0908C15 60.7433 26.1928 71 40 71Z" fill="#2F88FF" stroke="black" stroke-width="2.5" stroke-linejoin="round"/>
<path d="M42.2857 28H45.8571V31.3333H49.4286V34.6667H35.1429V41.3333H49.4286V44.6667H35.1429V51.3333H49.4286V54.6667H45.8571V58H42.2857V54.6667H38.7143V58H35.1429V54.6667H28V51.3333H31.5714V44.6667H28V41.3333H31.5714V34.6667H28V31.3333H35.1429V28H38.7143V31.3333H42.2857V28ZM49.4286 51.3333V44.6667H53V51.3333H49.4286ZM49.4286 41.3333V34.6667H53V41.3333H49.4286Z" fill="#F7931A"/>
<path d="M18.75 8.75H11.25V1.25C11.25 0.918479 11.1183 0.600537 10.8839 0.366117C10.6495 0.131696 10.3315 0 10 0C9.66848 0 9.35054 0.131696 9.11612 0.366117C8.8817 0.600537 8.75 0.918479 8.75 1.25V8.75H1.25C0.918479 8.75 0.600537 8.8817 0.366117 9.11612C0.131696 9.35054 0 9.66848 0 10C0 10.3315 0.131696 10.6495 0.366117 10.8839C0.600537 11.1183 0.918479 11.25 1.25 11.25H8.75V18.75C8.75 19.0815 8.8817 19.3995 9.11612 19.6339C9.35054 19.8683 9.66848 20 10 20C10.3315 20 10.6495 19.8683 10.8839 19.6339C11.1183 19.3995 11.25 19.0815 11.25 18.75V11.25H18.75C19.0815 11.25 19.3995 11.1183 19.6339 10.8839C19.8683 10.6495 20 10.3315 20 10C20 9.66848 19.8683 9.35054 19.6339 9.11612C19.3995 8.8817 19.0815 8.75 18.75 8.75Z" fill="#0A0A0A"/>
</svg>
